<svg width="14" height="14" viewBox="0 0 14 14" fill="none" xmlns="http://www.w3.org/2000/svg">
<path fill-rule="evenodd" clip-rule="evenodd" d="M5.4 2.19998C3.63269 2.19998 2.2 3.63266 2.2 5.39998C2.2 7.16729 3.63269 8.59998 5.4 8.59998C7.16731 8.59998 8.6 7.16729 8.6 5.39998C8.6 3.63266 7.16731 2.19998 5.4 2.19998ZM0.600002 5.39998C0.600002 2.74901 2.74904 0.599976 5.4 0.599976C8.05097 0.599976 10.2 2.74901 10.2 5.39998C10.2 6.43664 9.87137 7.39655 9.3126 8.1812L13.1657 12.0343C13.4781 12.3467 13.4781 12.8532 13.1657 13.1657C12.8533 13.4781 12.3467 13.4781 12.0343 13.1657L8.18123 9.31257C7.39657 9.87134 6.43667 10.2 5.4 10.2C2.74904 10.2 0.600002 8.05094 0.600002 5.39998Z" fill="#6F7794"/>
</svg>
